<?xml version="1.0" encoding="UTF-8"?>
<svg id="Layer_1" data-name="Layer 1" xmlns="http://www.w3.org/2000/svg" width="4472.14" height="4472.14" viewBox="0 0 4472.14 4472.14">
  <path d="M3466.82,2433.01v-332.95l77.7-34.58c36.3-16.16,59.72-52.14,59.79-91.88.07-39.74-23.22-75.81-59.47-92.08l-1293.5-580.96c-13.13-5.89-27.2-8.84-41.28-8.84s-27.93,2.9-40.97,8.7l-1292.39,575.18c-36.3,16.16-59.72,52.14-59.79,91.88-.07,39.74,23.22,75.81,59.47,92.08l519.51,233.33v618c.09,183.87,255.34,269.52,803.23,269.52s826.13-88.15,826.21-269.56v-614.31l340.77-151.65v288.16c-44.84,45.9-154.36,184.63-188.7,471.9-.62,19.41,7.65,49.42,32.83,75.45,39.54,40.88,108.95,61.59,206.23,61.59s166.69-20.71,206.23-61.59c25.18-26.03,33.45-56.04,32.47-79.79-34.05-283.78-143.51-421.83-188.34-467.6ZM2924.61,2910.81c-.05,39.63-52.42,168.89-725.49,168.89-633.94,0-702.46-118.12-702.5-168.84v-572.72l673.25,302.38c13.13,5.89,27.2,8.84,41.28,8.84s27.93-2.9,40.97-8.7l672.5-299.29v569.45ZM2211.14,2548.6l-1293.48-580.94,1292.39-575.18,1293.5,580.95-1292.41,575.16ZM3416.46,2941.27c-99.02,0-132.07-24.73-137.8-35.91,26.34-208.56,96.7-324.89,137.8-377.04,41.1,52.15,111.46,168.57,137.8,377.04-5.72,11.18-38.78,35.91-137.8,35.91Z" style="fill: #1e40af;"/>
  <rect width="4472.14" height="4472.14" style="fill: none;"/>
</svg>