<?xml version="1.0" encoding="UTF-8"?>
<svg id="Layer_1" data-name="Layer 1" xmlns="http://www.w3.org/2000/svg" width="4472.13" height="4472.14" viewBox="0 0 4472.13 4472.14">
  <path d="M3655.15,2900.61c-34.04-283.77-143.51-421.83-188.33-467.6v-332.94l77.7-34.58c36.29-16.16,59.71-52.15,59.78-91.88.07-39.74-23.22-75.81-59.47-92.09l-1293.5-580.96c-13.13-5.89-27.2-8.84-41.28-8.84s-27.93,2.9-40.97,8.7l-1292.39,575.18c-36.3,16.16-59.72,52.14-59.79,91.88-.07,39.74,23.22,75.81,59.47,92.09l519.52,233.33v618c.09,183.87,255.34,269.52,803.23,269.52s826.12-88.16,826.21-269.56v-614.31l340.76-151.66v288.16c-44.83,45.9-154.36,184.62-188.69,471.9-.63,19.41,7.64,49.42,32.82,75.45,39.54,40.88,108.96,61.59,206.24,61.59s166.69-20.71,206.22-61.59c25.19-26.03,33.46-56.04,32.47-79.79ZM2924.61,2910.81c-.05,39.63-52.42,168.89-725.49,168.89-633.94,0-702.47-118.13-702.51-168.84v-572.72l673.25,302.37c13.13,5.9,27.2,8.85,41.28,8.85s27.93-2.9,40.97-8.71l672.5-299.29v569.45ZM2211.14,2548.6l-1293.48-580.94,1292.39-575.18,1293.5,580.95-1292.41,575.17Z" style="fill: #1e40af;"/>
  <path d="M3655.15,2900.61c-34.04-283.77-143.51-421.83-188.33-467.6v-332.94l77.7-34.58c36.29-16.16,59.71-52.15,59.78-91.88.07-39.74-23.22-75.81-59.47-92.09l-1293.5-580.96c-13.13-5.89-27.2-8.84-41.28-8.84s-27.93,2.9-40.97,8.7l-1292.39,575.18c-36.3,16.16-59.72,52.14-59.79,91.88-.07,39.74,23.22,75.81,59.47,92.09l519.52,233.33v618c.09,183.87,255.34,269.52,803.23,269.52s826.12-88.16,826.21-269.56v-614.31l340.76-151.66v288.16c-44.83,45.9-154.36,184.62-188.69,471.9-.63,19.41,7.64,49.42,32.82,75.45,39.54,40.88,108.96,61.59,206.24,61.59s166.69-20.71,206.22-61.59c25.19-26.03,33.46-56.04,32.47-79.79ZM2924.61,2910.81c-.05,39.63-52.42,168.89-725.49,168.89-633.94,0-702.47-118.13-702.51-168.84v-572.72l673.25,302.37c13.13,5.9,27.2,8.85,41.28,8.85s27.93-2.9,40.97-8.71l672.5-299.29v569.45ZM2211.14,2548.6l-1293.48-580.94,1292.39-575.18,1293.5,580.95-1292.41,575.17ZM3416.46,2941.27c-99.03,0-132.08-24.73-137.8-35.91,26.34-208.56,96.69-324.89,137.8-377.04,41.1,52.15,111.45,168.57,137.79,377.04-5.72,11.18-38.77,35.91-137.79,35.91Z" style="fill: #fff;"/>
  <path d="M3655.15,2900.61c-34.04-283.77-143.51-421.83-188.33-467.6v-332.94l77.7-34.58c36.29-16.16,59.71-52.15,59.78-91.88.07-39.74-23.22-75.81-59.47-92.09l-1293.5-580.96c-13.13-5.89-27.2-8.84-41.28-8.84s-27.93,2.9-40.97,8.7l-1292.39,575.18c-36.3,16.16-59.72,52.14-59.79,91.88-.07,39.74,23.22,75.81,59.47,92.09l519.52,233.33v618c.09,183.87,255.34,269.52,803.23,269.52s826.12-88.16,826.21-269.56v-614.31l340.76-151.66v288.16c-44.83,45.9-154.36,184.62-188.69,471.9-.63,19.41,7.64,49.42,32.82,75.45,39.54,40.88,108.96,61.59,206.24,61.59s166.69-20.71,206.22-61.59c25.19-26.03,33.46-56.04,32.47-79.79ZM2924.61,2910.81c-.05,39.63-52.42,168.89-725.49,168.89-633.94,0-702.47-118.13-702.51-168.84v-572.72l673.25,302.37c13.13,5.9,27.2,8.85,41.28,8.85s27.93-2.9,40.97-8.71l672.5-299.29v569.45ZM2211.14,2548.6l-1293.48-580.94,1292.39-575.18,1293.5,580.95-1292.41,575.17Z" style="fill: none;"/>
  <path d="M0,0v4472.14h4472.13V0H0ZM2236.07,4162.38c-1063.88,0-1926.32-862.44-1926.32-1926.31S1172.19,309.75,2236.07,309.75s1926.31,862.44,1926.31,1926.32-862.44,1926.31-1926.31,1926.31Z" style="fill: none;"/>
  <path d="M2236.07,309.75c-1063.88,0-1926.32,862.44-1926.32,1926.32s862.44,1926.31,1926.32,1926.31,1926.31-862.44,1926.31-1926.31S3299.94,309.75,2236.07,309.75ZM3416.46,3041.99c-97.28,0-166.7-20.71-206.24-61.59-25.18-26.03-33.45-56.04-32.82-75.45,34.33-287.28,143.86-426,188.69-471.9v-288.16l-340.76,151.66v614.31c-.09,181.4-270.32,269.56-826.21,269.56s-803.14-85.65-803.23-269.52v-618l-519.52-233.33c-36.25-16.28-59.54-52.35-59.47-92.09.07-39.74,23.49-75.72,59.79-91.88l1292.39-575.18c13.04-5.8,27.01-8.7,40.97-8.7s28.15,2.95,41.28,8.84l1293.5,580.96c36.25,16.28,59.54,52.35,59.47,92.09-.07,39.73-23.49,75.72-59.78,91.88l-77.7,34.58v332.94c44.82,45.77,154.29,183.83,188.33,467.6.99,23.75-7.28,53.76-32.47,79.79-39.53,40.88-108.95,61.59-206.22,61.59Z" style="fill: #1e40af;"/>
  <path d="M2924.61,2341.36v569.45c-.05,39.63-52.42,168.89-725.49,168.89-633.94,0-702.47-118.13-702.51-168.84v-572.72l673.25,302.37c13.13,5.9,27.2,8.85,41.28,8.85s27.93-2.9,40.97-8.71l672.5-299.29Z" style="fill: #1e40af;"/>
  <polygon points="3503.55 1973.43 2211.14 2548.6 917.66 1967.66 2210.05 1392.48 3503.55 1973.43" style="fill: #1e40af;"/>
</svg>